<svg xmlns="http://www.w3.org/2000/svg" viewBox="0 0 512 512" style="enable-background:new 0 0 512 512" xml:space="preserve"><path style="fill:#f96800" d="M169.956 261.389H40.889l-9.086-54.635a19.982 19.982 0 0 0-10.752-14.59l-1.404-.704a19.992 19.992 0 0 1-11.024-17.876c0-11.038 8.928-19.985 19.942-19.985h94.288c8.806 0 16.57 5.789 19.101 14.242l28.002 93.548z"/><path style="fill:#f93100" d="M9.876 180.547h91.451c8.806 0 16.57 5.789 19.101 14.242l19.936 66.6H40.889l-9.087-54.635a19.982 19.982 0 0 0-10.752-14.59l-1.404-.704a19.95 19.95 0 0 1-9.77-10.913z"/><path style="fill:#bc0000" d="m105.422 239.832 72.867-29.21a193.612 193.612 0 0 1 125.348-6.425l168.716 48.309c18.364 5.258 31.025 22.08 31.025 41.221 0 11.906-9.631 21.558-21.512 21.558H105.422v-75.453z"/><path style="fill:#720000" d="m352.852 218.289 119.501 34.217a42.63 42.63 0 0 1 16.314 8.884h.012c.22.192.429.397.645.594.328.299.66.593.979.901.271.262.527.536.79.804a41.93 41.93 0 0 1 1.521 1.634c.291.329.586.654.867.993.237.286.461.582.691.874.269.343.541.683.8 1.034.217.293.424.594.633.894.255.365.51.731.755 1.104.194.296.38.596.567.897a42.062 42.062 0 0 1 1.211 2.076 51.173 51.173 0 0 1 1.095 2.144c.227.479.441.964.651 1.451.109.253.222.504.327.761.234.575.451 1.158.661 1.744.053.148.115.291.166.439h-.005a42.84 42.84 0 0 1 2.35 13.995c0 11.906-9.631 21.558-21.512 21.558H105.422v-53.895h204.33c23.804-.003 43.1-19.299 43.1-43.103z"/><path style="fill:#1a6399" d="M352.8 277.558c0-26.789 21.669-48.505 48.4-48.505s48.4 21.716 48.4 48.505-21.669 48.505-48.4 48.505-48.4-21.716-48.4-48.505z"/><path style="fill:#f9a100" d="M385.067 277.558c0-8.929 7.223-16.168 16.133-16.168s16.133 7.239 16.133 16.168c0 8.929-7.223 16.168-16.133 16.168s-16.133-7.239-16.133-16.168z"/><path style="fill:#fff" d="M156.515 253.305h142.507a8.084 8.084 0 0 1 0 16.168H156.515a8.084 8.084 0 0 1 0-16.168zm160.774 8.084a8.084 8.084 0 0 0 8.084 8.084h1.076a8.084 8.084 0 0 0 0-16.168h-1.076a8.085 8.085 0 0 0-8.084 8.084z"/><path style="fill:#1a6399" d="M105.422 326.063c-35.641 0-64.534-28.955-64.534-64.674s28.893-64.674 64.534-64.674 64.534 28.956 64.534 64.674-28.893 64.674-64.534 64.674z"/><path style="fill:#f9a100" d="M105.422 293.726c-17.821 0-32.267-14.477-32.267-32.337s14.446-32.337 32.267-32.337 32.267 14.477 32.267 32.337-14.447 32.337-32.267 32.337z"/><path style="fill:#f9b300" d="M136.313 252.039c-2.848 8.548-10.883 14.716-20.37 14.716-11.868 0-21.488-9.642-21.488-21.534 0-6.319 2.732-11.984 7.058-15.924a32.54 32.54 0 0 1 3.908-.245c14.577.001 26.89 9.688 30.892 22.987z"/><path d="M510.924 293.726c0-22.628-15.167-42.774-36.884-48.991l-35.686-10.218a8.01 8.01 0 0 0-1.384-.262c-9.826-8.284-22.492-13.286-36.308-13.286-2.655 0-5.263.198-7.821.555a9.096 9.096 0 0 0-.709-.243l-86.807-24.856a201.62 201.62 0 0 0-55.522-7.793c-25.826 0-51.08 4.873-75.059 14.486l-12.795 5.13-12.789-42.725c-3.582-11.967-14.371-20.007-26.845-20.007H28.026C12.573 145.516 0 158.108 0 173.585c0 10.698 5.935 20.318 15.488 25.104l1.402.702a11.94 11.94 0 0 1 6.401 8.69l8.996 54.096c.425 39.756 32.819 71.97 72.597 71.97a72.066 72.066 0 0 0 38.008-10.794c.096.003.191.015.288.015h224.379c9.31 6.771 20.745 10.779 33.103 10.779s23.793-4.008 33.103-10.779h47.564c16.32 0 29.595-13.298 29.595-29.642zm-330.164-75.6c22.057-8.843 45.286-13.326 69.042-13.326a185.49 185.49 0 0 1 51.072 7.168l67.371 19.29c-14.539 10.249-24.066 27.175-24.066 46.299a56.31 56.31 0 0 0 8.395 29.642H161.248c10.154-12.518 16.255-28.461 16.255-45.811 0-13.804-3.857-26.722-10.547-37.73l13.804-5.532zM24.133 184.935l-1.403-.702c-4.047-2.029-6.561-6.108-6.561-10.649 0-6.562 5.319-11.901 11.858-11.901h94.288c5.275 0 9.839 3.406 11.357 8.475l8.655 28.913a72.068 72.068 0 0 0-37.442-10.442c-26.565 0-49.83 14.373-62.491 35.757l-3.153-18.961c-1.469-8.823-7.117-16.484-15.108-20.49zm24.302 76.454c0-31.203 25.323-56.589 56.449-56.589s56.449 25.387 56.449 56.589-25.323 56.589-56.449 56.589-56.449-25.386-56.449-56.589zm311.912 16.169c0-22.289 18.085-40.421 40.315-40.421s40.315 18.132 40.315 40.421c0 22.289-18.085 40.421-40.315 40.421s-40.315-18.132-40.315-40.421zM481.33 307.2h-32.577a56.319 56.319 0 0 0 8.395-29.642c0-7.85-1.606-15.331-4.503-22.132l16.947 4.853c14.818 4.244 25.167 17.997 25.167 33.448-.003 7.429-6.026 13.473-13.429 13.473zm-80.668-53.895c-13.354 0-24.217 10.88-24.217 24.253 0 13.372 10.863 24.253 24.217 24.253s24.218-10.88 24.218-24.253c0-13.372-10.864-24.253-24.218-24.253zm0 32.337c-4.438 0-8.049-3.626-8.049-8.084s3.611-8.084 8.049-8.084c4.439 0 8.05 3.626 8.05 8.084s-3.611 8.084-8.05 8.084zm-295.777-64.674c-22.25 0-40.351 18.132-40.351 40.421 0 22.289 18.101 40.421 40.351 40.421s40.351-18.132 40.351-40.421-18.103-40.421-40.351-40.421zm0 64.674c-13.334 0-24.183-10.88-24.183-24.253s10.849-24.253 24.183-24.253 24.183 10.88 24.183 24.253-10.85 24.253-24.183 24.253zM48.435 358.4a8.082 8.082 0 0 1-8.084 8.084h-1.075a8.082 8.082 0 0 1-8.084-8.084 8.082 8.082 0 0 1 8.084-8.084h1.075a8.083 8.083 0 0 1 8.084 8.084zm-31.191 0a8.082 8.082 0 0 1-8.084 8.084H8.084A8.082 8.082 0 0 1 0 358.4a8.082 8.082 0 0 1 8.084-8.084H9.16a8.082 8.082 0 0 1 8.084 8.084zm494.756 0a8.082 8.082 0 0 1-8.084 8.084h-1.076a8.082 8.082 0 0 1-8.084-8.084 8.082 8.082 0 0 1 8.084-8.084h1.076A8.082 8.082 0 0 1 512 358.4zM0 277.558a8.082 8.082 0 0 1 8.084-8.084H9.16c4.466 0 8.084 3.618 8.084 8.084s-3.618 8.084-8.084 8.084H8.084A8.082 8.082 0 0 1 0 277.558zM478.657 358.4a8.082 8.082 0 0 1-8.084 8.084H72.618a8.082 8.082 0 0 1-8.084-8.084 8.082 8.082 0 0 1 8.084-8.084h397.955a8.082 8.082 0 0 1 8.084 8.084zM29.596 317.979H8.084c-4.466 0-8.084-3.618-8.084-8.084s3.618-8.084 8.084-8.084h21.512c4.466 0 8.084 3.618 8.084 8.084s-3.619 8.084-8.084 8.084z"/></svg>